# xmcd
#
# Track frame offsets:
#	150
#	11125
#	19425
#
# Disc length: 418 seconds
#
# Revision: 0
# Processed by: cddbd v1.5.2PL0 Copyright (c) Steve Scherf et al.
# Submitted via: audiograbber 1.83.01
#
DISCID=1f01a003
DTITLE=Wolfgang Fierek - Wolfgang Fierek - Ein Bayer auf Rügen
DYEAR=1994
DGENRE=Schlager
TTITLE0=Wolfgang Fierek - Ein Bayer auf Rügen
TTITLE1=Orchester André Bauer - Bayernfahrt
TTITLE2=Orchester André Bauer - Love Theme - Hanna
EXTD=
EXTT0=
EXTT1=
EXTT2=
PLAYORDER=
